<svg xmlns="http://www.w3.org/2000/svg" width="219.74400000000003" height="76.32000000000001" viewBox="0 -54.864000000000004 219.74400000000003 76.32000000000001"><path d="M40.18-49.90L40.18-49.90L40.10-48.96Q37.37-27.94 36.50-23.04L36.50-23.04Q35.06-14.98 35.06-10.76Q35.06-6.55 38.66-6.55L38.66-6.55Q41.69-6.55 44.06-10.91Q46.44-15.26 47.66-21.74L47.66-21.74Q50.18-35.28 50.18-45.14L50.18-45.14Q50.18-49.75 49.39-53.14L49.39-53.14Q52.27-54.86 56.30-54.86Q60.34-54.86 60.34-50.11L60.34-50.11Q60.34-42.70 58.03-27.58L58.03-27.58Q56.16-14.98 52.85-9.07L52.85-9.07Q51.34-6.55 49.39-4.25L49.39-4.25Q45.36 0.43 38.12 0.43Q30.89 0.43 27.79-5.76L27.79-5.76Q23.83 0.43 15.77 0.43L15.77 0.43Q10.58 0.43 7.74-2.56Q4.90-5.54 4.90-10.51L4.90-10.51Q4.90-11.16 5.04-12.46L5.04-12.46L7.70-32.76Q0-38.30 0-45.22L0-45.22Q0-49.61 3.02-52.20Q6.05-54.79 10.37-54.79L10.37-54.79Q19.80-54.79 19.80-45.43L19.80-45.43Q19.80-45.29 19.76-45.07Q19.73-44.86 19.69-44.39Q19.66-43.92 19.55-43.31Q19.44-42.70 19.26-41.47Q19.08-40.25 18.86-38.77Q18.65-37.30 18.29-34.85Q17.93-32.40 17.53-29.56Q17.14-26.71 16.56-22.61Q15.98-18.50 15.55-15.62Q15.12-12.74 15.12-11.45L15.12-11.45Q15.12-6.62 18.86-6.62L18.86-6.62Q24.05-6.62 25.27-16.06L25.27-16.06L29.88-52.42Q32.26-53.50 35.57-53.50L35.57-53.50Q40.18-53.50 40.18-49.90ZM7.56-49.03L7.56-49.03Q6.19-49.03 5.54-48.02Q4.90-47.02 4.90-45.72L4.90-45.72Q4.90-42.48 8.50-39.02L8.50-39.02L8.86-41.90Q9.14-44.28 9.18-46.66Q9.22-49.03 7.56-49.03ZM75.31-16.13Q79.78-17.06 81.97-19.73Q84.17-22.39 84.17-24.88Q84.17-27.36 82.84-28.26Q81.50-29.16 79.92-29.16L79.92-29.16Q76.54-29.16 73.98-25.38Q71.42-21.60 71.42-16.38Q71.42-11.16 73.91-8.60Q76.39-6.05 80.06-6.05L80.06-6.05Q85.46-6.05 90.43-9.79Q95.40-13.54 98.50-19.58L98.50-19.58Q100.08-18.07 101.38-15.84L101.38-15.84Q99-10.44 92.95-5.26L92.95-5.26Q89.93-2.74 85.79-1.15Q81.65 0.43 77.26 0.43L77.26 0.43Q70.06 0.43 65.88-3.96L65.88-3.96Q61.42-8.71 61.42-16.13Q61.42-23.54 67.00-29.09Q72.58-34.63 80.35-34.63L80.35-34.63Q85.90-34.63 89.35-32.22Q92.81-29.81 92.88-25.70L92.88-25.70Q92.88-20.16 88.45-16.70Q84.02-13.25 76.32-11.88L76.32-11.88L75.31-16.13ZM105.16 0.50Q100.73 0.50 98.21-1.98Q95.69-4.46 95.69-8.78L95.69-8.78Q95.69-9.94 99.58-42.98L99.58-42.98Q100.58-51.48 104.98-53.71L104.98-53.71Q106.99-54.79 109.80-54.79L109.80-54.79Q119.30-54.79 119.30-46.01L119.30-46.01Q119.30-45.29 119.23-44.50L119.23-44.50Q118.51-34.85 107.14-24.84L107.14-24.84Q106.78-21.31 106.34-18.00L106.34-18.00Q105.48-10.58 105.48-9.79L105.48-9.79Q105.48-6.05 108.72-6.05L108.72-6.05Q112.25-6.05 115.31-10.12Q118.37-14.18 120.02-20.52L120.02-20.52Q120.67-20.30 121.82-19.33Q122.98-18.36 123.41-17.64L123.41-17.64Q122.26-11.66 118.22-6.19L118.22-6.19Q116.21-3.38 113.11-1.58L113.11-1.58Q109.58 0.50 105.16 0.50ZM108.14-34.20L107.93-32.04Q114.55-39.31 114.55-45.07L114.55-45.07Q114.55-48.53 111.96-48.53L111.96-48.53Q110.30-48.38 109.76-46.37Q109.22-44.35 108.76-39.82Q108.29-35.28 108.14-34.20L108.14-34.20ZM127.19 0.50Q122.76 0.50 120.24-1.98Q117.72-4.46 117.72-8.78L117.72-8.78Q117.72-9.94 121.61-42.98L121.61-42.98Q122.62-51.48 127.01-53.71L127.01-53.71Q129.02-54.79 131.83-54.79L131.83-54.79Q141.34-54.79 141.34-46.01L141.34-46.01Q141.34-45.29 141.26-44.50L141.26-44.50Q140.54-34.85 129.17-24.84L129.17-24.84Q128.81-21.31 128.38-18.00L128.38-18.00Q127.51-10.58 127.51-9.79L127.51-9.79Q127.51-6.05 130.75-6.05L130.75-6.05Q134.28-6.05 137.34-10.12Q140.40-14.18 142.06-20.52L142.06-20.52Q142.70-20.30 143.86-19.33Q145.01-18.36 145.44-17.64L145.44-17.64Q144.29-11.66 140.26-6.19L140.26-6.19Q138.24-3.38 135.14-1.58L135.14-1.58Q131.62 0.50 127.19 0.50ZM130.18-34.20L129.96-32.04Q136.58-39.31 136.58-45.07L136.58-45.07Q136.58-48.53 133.99-48.53L133.99-48.53Q132.34-48.38 131.80-46.37Q131.26-44.35 130.79-39.82Q130.32-35.28 130.18-34.20L130.18-34.20ZM158.40-34.63L158.40-34.63Q165.02-34.63 169.45-30.38Q173.88-26.14 173.88-20.02L173.88-20.02Q173.88-10.73 168.44-5.15Q163.01 0.43 155.30 0.43Q147.60 0.43 143.10-3.96Q138.60-8.35 138.60-14.83L138.60-14.83Q138.60-23.90 144.14-29.23L144.14-29.23Q149.76-34.63 158.40-34.63ZM157.00-28.80Q153.58-28.80 151.27-24.91Q148.97-21.02 148.75-15.12L148.75-15.12Q148.75-10.94 150.44-8.21Q152.14-5.47 155.59-5.47Q159.05-5.47 161.39-9.29Q163.73-13.10 163.73-18.00Q163.73-22.90 162.07-25.78L162.07-25.78Q160.42-28.80 157.00-28.80ZM196.34-34.63L196.34-34.63Q200.30-34.63 203.62-33.34L203.62-33.34Q205.85-34.70 208.30-34.70Q210.74-34.70 212.18-34.06L212.18-34.06L209.59-13.75Q214.92-17.86 217.66-21.24L217.66-21.24L219.74-16.85Q215.64-12.53 208.80-7.63L208.80-7.63L206.86 7.42Q206.06 14.18 202.43 17.82Q198.79 21.46 193.03 21.46L193.03 21.46Q189.72 21.46 186.55 19.30L186.55 19.30Q183.24 16.99 183.24 11.88L183.24 11.88Q183.24 5.62 189.22 0.43L189.22 0.43Q184.10 0.07 180.43-3.82Q176.76-7.70 176.76-13.97L176.76-13.97Q176.76-23.40 182.30-29.02Q187.85-34.63 196.34-34.63ZM197.42-29.02L197.42-29.02Q192.82-29.02 190.12-25.52Q187.42-22.03 186.91-15.12L186.91-15.12Q186.84-14.47 186.84-13.90L186.84-13.90Q186.84-10.37 188.53-8.28Q190.22-6.19 192.89-6.19L192.89-6.19Q197.42-6.19 199.73-12.53L199.73-12.53L201.53-28.15Q199.30-29.02 197.42-29.02ZM188.78 10.80L188.78 10.80Q188.78 12.74 189.90 13.86Q191.02 14.98 192.46 14.98L192.46 14.98Q196.49 14.98 197.14 9.86L197.14 9.86L198.36-0.94Q188.78 4.75 188.78 10.80Z"/></svg>